<svg width="201" height="181" viewBox="0 0 201 181" fill="none" xmlns="http://www.w3.org/2000/svg">
<path d="M15.9308 61.3878C17.7442 61.3878 19.2166 62.8601 19.2166 64.6736C19.2166 66.4871 17.7442 67.9595 15.9308 67.9595C14.1173 67.9595 12.6449 66.4871 12.6449 64.6736C12.6449 62.8601 14.1173 61.3878 15.9308 61.3878Z" fill="#282929"/>
<path d="M167.081 87.6724C168.895 87.6724 170.367 89.1448 170.367 90.9582C170.367 92.7717 168.895 94.2441 167.081 94.2441C165.268 94.2441 163.796 92.7717 163.796 90.9582C163.796 89.1448 165.268 87.6724 167.081 87.6724Z" fill="#2A2A2A"/>
<path d="M138.33 17.8519C140.143 17.8519 141.616 19.3243 141.616 21.1378C141.616 22.9512 140.143 24.4236 138.33 24.4236C136.516 24.4236 135.044 22.9512 135.044 21.1378C135.044 19.3243 136.516 17.8519 138.33 17.8519Z" stroke="#252525" stroke-width="0.821464"/>
<path d="M46.5466 36.6979C44.7725 38.67 41.7309 38.8307 39.7588 37.0567C37.7867 35.2826 37.6259 32.241 39.4 30.2689C41.174 28.2967 44.2157 28.136 46.1878 29.91C48.1599 31.6841 48.3207 34.7257 46.5466 36.6979Z" stroke="#2A2A2A" stroke-width="0.801068"/>
<path d="M29.952 101.298L24.2587 96.8752L24.7501 96.2426L30.4435 100.666L29.952 101.298ZM25.7016 101.547L25.069 101.055L29.0006 95.9944L29.6332 96.4858L25.7016 101.547Z" fill="#353636"/>
<path d="M185.839 64.1397L178.738 62.8932L178.876 62.1042L185.977 63.3507L185.839 64.1397ZM182.198 66.3472L181.409 66.2087L182.517 59.8967L183.306 60.0352L182.198 66.3472Z" fill="#2F3030"/>
<path d="M101.838 30.5685L94.8573 32.3694L94.6572 31.5937L101.638 29.7929L101.838 30.5685ZM99.436 34.0838L98.6604 34.2839L97.0596 28.0785L97.8353 27.8784L99.436 34.0838Z" fill="#282929"/>
<path d="M109.086 82.6614L123.963 97.5384L115.827 105.674L100.95 90.7971L109.086 82.6614Z" fill="#CFCFCF"/>
<path d="M124.084 92.067L142.225 110.207C144.061 112.044 144.061 115.027 142.225 116.863L134.872 124.216C133.035 126.053 130.052 126.053 128.215 124.216L110.075 106.076C108.238 104.239 108.238 101.257 110.075 99.42L117.428 92.067C119.265 90.2303 122.248 90.2303 124.084 92.067Z" fill="#CFCFCF"/>
<path d="M111.473 89.4839C123.116 77.7783 123.103 58.7914 111.453 47.0734C99.802 35.3553 80.9174 35.3491 69.2797 47.0543C57.6373 58.7598 57.6449 77.7471 69.2999 89.4601C80.9506 101.178 99.8309 101.189 111.473 89.4839Z" fill="#CFCFCF"/>
<path d="M72.8208 51.6114C82.004 42.4282 96.9234 42.4355 106.115 51.6276C115.308 60.8197 115.315 75.739 106.132 84.9222C96.9484 94.1054 82.0291 94.0982 72.837 84.9061C63.6449 75.714 63.6376 60.7946 72.8208 51.6114Z" fill="#CFCFCF"/>
<g opacity="0.92">
<path d="M82.6227 61.8677C83.7772 61.8677 84.7146 63.6543 84.7146 65.8546C84.7146 68.055 83.7772 69.8415 82.6227 69.8415C81.4682 69.8415 80.5308 68.055 80.5308 65.8546C80.5308 63.6543 81.4682 61.8677 82.6227 61.8677Z" fill="#575757"/>
</g>
<g opacity="0.92">
<path d="M95.8199 61.8677C96.9744 61.8677 97.9118 63.6543 97.9118 65.8546C97.9118 68.055 96.9744 69.8415 95.8199 69.8415C94.6654 69.8415 93.728 68.055 93.728 65.8546C93.728 63.6543 94.6654 61.8677 95.8199 61.8677Z" fill="#575757"/>
</g>
<path d="M116.725 68.4398C121.403 68.4398 125.197 65.6676 125.197 62.2459C125.197 58.8243 116.725 50.5548 116.725 50.5548C116.725 50.5548 108.253 58.8243 108.253 62.2459C108.253 65.6676 112.047 68.4398 116.725 68.4398Z" fill="url(#paint0_linear_1_1289)"/>
<path d="M94.3675 77.5139C87.9306 74.2957 82.7713 77.883 83.6188 77.6992C87.3253 76.8961 94.6146 77.6374 94.3675 77.5139Z" fill="#748394"/>
<path d="M87.2313 125.428C91.5519 125.428 95.06 126.128 95.06 126.989C95.06 127.85 91.5519 128.549 87.2313 128.549C82.9106 128.549 79.4025 127.85 79.4025 126.989C79.4025 126.128 82.9106 125.428 87.2313 125.428Z" fill="#292929"/>
<path d="M33.583 165.537V175.491H32.2842V165.537H33.583ZM36.7822 165.537V166.618H29.0918V165.537H36.7822ZM38.352 164.991V175.491H37.0874V164.991H38.352ZM38.0512 171.512L37.5249 171.492C37.5294 170.986 37.6046 170.519 37.7505 170.09C37.8963 169.657 38.1014 169.281 38.3657 168.962C38.63 168.643 38.9445 168.397 39.3091 168.224C39.6782 168.046 40.0861 167.957 40.5327 167.957C40.8973 167.957 41.2254 168.008 41.5171 168.108C41.8087 168.203 42.0571 168.358 42.2622 168.573C42.4718 168.787 42.6313 169.065 42.7407 169.407C42.8501 169.744 42.9048 170.156 42.9048 170.644V175.491H41.6333V170.63C41.6333 170.243 41.5763 169.933 41.4624 169.701C41.3485 169.464 41.1821 169.293 40.9634 169.188C40.7446 169.078 40.4757 169.024 40.1567 169.024C39.8423 169.024 39.5552 169.09 39.2954 169.222C39.0402 169.354 38.8192 169.536 38.6323 169.769C38.45 170.001 38.3065 170.268 38.2016 170.569C38.1014 170.865 38.0512 171.179 38.0512 171.512ZM46.8877 175.627C46.3727 175.627 45.9056 175.541 45.4863 175.368C45.0716 175.19 44.7138 174.941 44.413 174.622C44.1168 174.303 43.889 173.925 43.7295 173.488C43.5699 173.05 43.4902 172.572 43.4902 172.052V171.765C43.4902 171.163 43.5791 170.628 43.7568 170.159C43.9345 169.685 44.1761 169.284 44.4814 168.955C44.7867 168.627 45.1331 168.379 45.5205 168.21C45.9078 168.042 46.3089 167.957 46.7236 167.957C47.2522 167.957 47.708 168.049 48.0908 168.231C48.4782 168.413 48.7949 168.668 49.041 168.996C49.2871 169.32 49.4694 169.703 49.5879 170.145C49.7063 170.582 49.7656 171.061 49.7656 171.58V172.148H44.2421V171.116H48.5009V171.02C48.4827 170.692 48.4143 170.373 48.2959 170.063C48.1819 169.753 47.9996 169.498 47.749 169.297C47.4983 169.097 47.1565 168.996 46.7236 168.996C46.4365 168.996 46.1722 169.058 45.9306 169.181C45.6891 169.3 45.4817 169.477 45.3086 169.714C45.1354 169.951 45.0009 170.241 44.9052 170.582C44.8095 170.924 44.7617 171.318 44.7617 171.765V172.052C44.7617 172.403 44.8095 172.733 44.9052 173.043C45.0055 173.349 45.149 173.618 45.3359 173.85C45.5273 174.082 45.7574 174.265 46.0263 174.397C46.2998 174.529 46.6097 174.595 46.956 174.595C47.4026 174.595 47.7809 174.504 48.0908 174.322C48.4007 174.139 48.6718 173.896 48.9043 173.59L49.6699 174.199C49.5104 174.44 49.3076 174.67 49.0615 174.889C48.8154 175.108 48.5123 175.286 48.1523 175.422C47.7968 175.559 47.3753 175.627 46.8877 175.627ZM51.5268 169.256V175.491H50.2621V168.094H51.4926L51.5268 169.256ZM53.8373 168.053L53.8305 169.229C53.7257 169.206 53.6254 169.192 53.5297 169.188C53.4386 169.179 53.3338 169.174 53.2153 169.174C52.9236 169.174 52.6661 169.22 52.4428 169.311C52.2195 169.402 52.0304 169.53 51.8754 169.694C51.7205 169.858 51.5974 170.054 51.5063 170.282C51.4197 170.505 51.3627 170.751 51.3354 171.02L50.9799 171.225C50.9799 170.778 51.0232 170.359 51.1098 169.967C51.2009 169.575 51.3399 169.229 51.5268 168.928C51.7136 168.623 51.9506 168.386 52.2377 168.217C52.5294 168.044 52.8758 167.957 53.2768 167.957C53.3679 167.957 53.4728 167.969 53.5912 167.992C53.7097 168.01 53.7918 168.03 53.8373 168.053ZM56.9589 175.627C56.4439 175.627 55.9768 175.541 55.5575 175.368C55.1428 175.19 54.7851 174.941 54.4843 174.622C54.1881 174.303 53.9602 173.925 53.8007 173.488C53.6412 173.05 53.5614 172.572 53.5614 172.052V171.765C53.5614 171.163 53.6503 170.628 53.828 170.159C54.0058 169.685 54.2473 169.284 54.5527 168.955C54.858 168.627 55.2043 168.379 55.5917 168.21C55.9791 168.042 56.3801 167.957 56.7948 167.957C57.3235 167.957 57.7792 168.049 58.162 168.231C58.5494 168.413 58.8661 168.668 59.1122 168.996C59.3583 169.32 59.5406 169.703 59.6591 170.145C59.7776 170.582 59.8368 171.061 59.8368 171.58V172.148H54.3134V171.116H58.5722V171.02C58.554 170.692 58.4856 170.373 58.3671 170.063C58.2532 169.753 58.0709 169.498 57.8202 169.297C57.5696 169.097 57.2278 168.996 56.7948 168.996C56.5077 168.996 56.2434 169.058 56.0019 169.181C55.7603 169.3 55.553 169.477 55.3798 169.714C55.2066 169.951 55.0722 170.241 54.9765 170.582C54.8808 170.924 54.8329 171.318 54.8329 171.765V172.052C54.8329 172.403 54.8808 172.733 54.9765 173.043C55.0767 173.349 55.2203 173.618 55.4071 173.85C55.5986 174.082 55.8287 174.265 56.0976 174.397C56.371 174.529 56.6809 174.595 57.0273 174.595C57.4739 174.595 57.8521 174.504 58.162 174.322C58.4719 174.139 58.7431 173.896 58.9755 173.59L59.7411 174.199C59.5816 174.44 59.3788 174.67 59.1327 174.889C58.8866 175.108 58.5836 175.286 58.2236 175.422C57.8681 175.559 57.4465 175.627 56.9589 175.627ZM67.1874 174.226V170.418C67.1874 170.127 67.1281 169.874 67.0096 169.66C66.8957 169.441 66.7225 169.272 66.4901 169.154C66.2577 169.035 65.9706 168.976 65.6288 168.976C65.3098 168.976 65.0295 169.031 64.788 169.14C64.551 169.249 64.3641 169.393 64.2274 169.571C64.0953 169.748 64.0292 169.94 64.0292 170.145H62.7645C62.7645 169.881 62.8329 169.619 62.9696 169.359C63.1063 169.099 63.3023 168.864 63.5575 168.655C63.8173 168.44 64.1272 168.272 64.4872 168.149C64.8518 168.021 65.2574 167.957 65.704 167.957C66.2417 167.957 66.7157 168.049 67.1259 168.231C67.5406 168.413 67.8641 168.689 68.0966 169.058C68.3335 169.423 68.452 169.881 68.452 170.432V173.877C68.452 174.123 68.4725 174.385 68.5136 174.663C68.5591 174.941 68.6252 175.181 68.7118 175.381V175.491H67.3925C67.3287 175.345 67.2785 175.151 67.2421 174.91C67.2056 174.663 67.1874 174.436 67.1874 174.226ZM67.4061 171.006L67.4198 171.895H66.1415C65.7815 171.895 65.4602 171.925 65.1776 171.984C64.8951 172.038 64.6581 172.123 64.4667 172.237C64.2753 172.351 64.1294 172.494 64.0292 172.667C63.9289 172.836 63.8788 173.034 63.8788 173.262C63.8788 173.495 63.9312 173.706 64.036 173.898C64.1408 174.089 64.2981 174.242 64.5077 174.356C64.7219 174.465 64.9839 174.52 65.2938 174.52C65.6812 174.52 66.023 174.438 66.3192 174.274C66.6154 174.11 66.8501 173.909 67.0233 173.672C67.2011 173.435 67.2968 173.205 67.3104 172.982L67.8505 173.59C67.8186 173.782 67.732 173.994 67.5907 174.226C67.4494 174.458 67.2603 174.682 67.0233 174.896C66.7909 175.106 66.5129 175.281 66.1893 175.422C65.8703 175.559 65.5103 175.627 65.1093 175.627C64.608 175.627 64.1682 175.529 63.7899 175.333C63.4162 175.137 63.1246 174.875 62.9149 174.547C62.7098 174.215 62.6073 173.843 62.6073 173.433C62.6073 173.036 62.6848 172.688 62.8397 172.387C62.9947 172.082 63.218 171.829 63.5096 171.628C63.8013 171.423 64.1522 171.268 64.5624 171.163C64.9725 171.059 65.4305 171.006 65.9364 171.006H67.4061ZM70.7259 169.256V175.491H69.4613V168.094H70.6918L70.7259 169.256ZM73.0365 168.053L73.0296 169.229C72.9248 169.206 72.8246 169.192 72.7289 169.188C72.6377 169.179 72.5329 169.174 72.4144 169.174C72.1227 169.174 71.8653 169.22 71.642 169.311C71.4186 169.402 71.2295 169.53 71.0746 169.694C70.9196 169.858 70.7966 170.054 70.7054 170.282C70.6188 170.505 70.5619 170.751 70.5345 171.02L70.1791 171.225C70.1791 170.778 70.2224 170.359 70.3089 169.967C70.4001 169.575 70.5391 169.229 70.7259 168.928C70.9128 168.623 71.1498 168.386 71.4369 168.217C71.7285 168.044 72.0749 167.957 72.4759 167.957C72.5671 167.957 72.6719 167.969 72.7904 167.992C72.9089 168.01 72.9909 168.03 73.0365 168.053ZM76.158 175.627C75.6431 175.627 75.176 175.541 74.7567 175.368C74.342 175.19 73.9842 174.941 73.6834 174.622C73.3872 174.303 73.1593 173.925 72.9998 173.488C72.8403 173.05 72.7606 172.572 72.7606 172.052V171.765C72.7606 171.163 72.8495 170.628 73.0272 170.159C73.2049 169.685 73.4465 169.284 73.7518 168.955C74.0571 168.627 74.4035 168.379 74.7909 168.21C75.1782 168.042 75.5793 167.957 75.994 167.957C76.5226 167.957 76.9784 168.049 77.3612 168.231C77.7485 168.413 78.0653 168.668 78.3114 168.996C78.5575 169.32 78.7398 169.703 78.8582 170.145C78.9767 170.582 79.036 171.061 79.036 171.58V172.148H73.5125V171.116H77.7713V171.02C77.7531 170.692 77.6847 170.373 77.5662 170.063C77.4523 169.753 77.27 169.498 77.0194 169.297C76.7687 169.097 76.4269 168.996 75.994 168.996C75.7069 168.996 75.4426 169.058 75.201 169.181C74.9595 169.3 74.7521 169.477 74.5789 169.714C74.4058 169.951 74.2713 170.241 74.1756 170.582C74.0799 170.924 74.0321 171.318 74.0321 171.765V172.052C74.0321 172.403 74.0799 172.733 74.1756 173.043C74.2759 173.349 74.4194 173.618 74.6063 173.85C74.7977 174.082 75.0278 174.265 75.2967 174.397C75.5702 174.529 75.8801 174.595 76.2264 174.595C76.673 174.595 77.0513 174.504 77.3612 174.322C77.6711 174.139 77.9422 173.896 78.1746 173.59L78.9403 174.199C78.7808 174.44 78.578 174.67 78.3319 174.889C78.0858 175.108 77.7827 175.286 77.4227 175.422C77.0672 175.559 76.6457 175.627 76.158 175.627ZM83.2898 169.673V175.491H82.0252V168.094H83.2215L83.2898 169.673ZM82.9891 171.512L82.4627 171.492C82.4673 170.986 82.5424 170.519 82.6883 170.09C82.8341 169.657 83.0392 169.281 83.3035 168.962C83.5678 168.643 83.8823 168.397 84.2469 168.224C84.616 168.046 85.0239 167.957 85.4705 167.957C85.8351 167.957 86.1632 168.008 86.4549 168.108C86.7466 168.203 86.9949 168.358 87.2 168.573C87.4096 168.787 87.5691 169.065 87.6785 169.407C87.7879 169.744 87.8426 170.156 87.8426 170.644V175.491H86.5711V170.63C86.5711 170.243 86.5141 169.933 86.4002 169.701C86.2863 169.464 86.1199 169.293 85.9012 169.188C85.6824 169.078 85.4135 169.024 85.0945 169.024C84.7801 169.024 84.493 169.09 84.2332 169.222C83.978 169.354 83.757 169.536 83.5701 169.769C83.3878 170.001 83.2443 170.268 83.1395 170.569C83.0392 170.865 82.9891 171.179 82.9891 171.512ZM88.4485 171.874V171.717C88.4485 171.184 88.526 170.689 88.6809 170.234C88.8359 169.773 89.0592 169.375 89.3509 169.037C89.6425 168.696 89.9957 168.431 90.4104 168.245C90.8251 168.053 91.29 167.957 91.805 167.957C92.3245 167.957 92.7916 168.053 93.2063 168.245C93.6256 168.431 93.9811 168.696 94.2727 169.037C94.569 169.375 94.7945 169.773 94.9495 170.234C95.1044 170.689 95.1819 171.184 95.1819 171.717V171.874C95.1819 172.408 95.1044 172.902 94.9495 173.358C94.7945 173.814 94.569 174.212 94.2727 174.554C93.9811 174.891 93.6279 175.156 93.2132 175.347C92.803 175.534 92.3382 175.627 91.8186 175.627C91.2991 175.627 90.832 175.534 90.4173 175.347C90.0026 175.156 89.6471 174.891 89.3509 174.554C89.0592 174.212 88.8359 173.814 88.6809 173.358C88.526 172.902 88.4485 172.408 88.4485 171.874ZM89.7132 171.717V171.874C89.7132 172.244 89.7565 172.592 89.843 172.92C89.9296 173.244 90.0595 173.531 90.2327 173.782C90.4104 174.032 90.6315 174.231 90.8958 174.376C91.1601 174.518 91.4677 174.588 91.8186 174.588C92.165 174.588 92.468 174.518 92.7278 174.376C92.9921 174.231 93.2109 174.032 93.3841 173.782C93.5572 173.531 93.6871 173.244 93.7737 172.92C93.8649 172.592 93.9104 172.244 93.9104 171.874V171.717C93.9104 171.353 93.8649 171.009 93.7737 170.685C93.6871 170.357 93.555 170.067 93.3772 169.817C93.2041 169.562 92.9853 169.361 92.721 169.215C92.4612 169.069 92.1559 168.996 91.805 168.996C91.4586 168.996 91.1533 169.069 90.8889 169.215C90.6292 169.361 90.4104 169.562 90.2327 169.817C90.0595 170.067 89.9296 170.357 89.843 170.685C89.7565 171.009 89.7132 171.353 89.7132 171.717ZM102.642 174.226V170.418C102.642 170.127 102.583 169.874 102.464 169.66C102.35 169.441 102.177 169.272 101.945 169.154C101.712 169.035 101.425 168.976 101.083 168.976C100.764 168.976 100.484 169.031 100.242 169.14C100.005 169.249 99.8186 169.393 99.6819 169.571C99.5497 169.748 99.4836 169.94 99.4836 170.145H98.219C98.219 169.881 98.2873 169.619 98.4241 169.359C98.5608 169.099 98.7567 168.864 99.012 168.655C99.2717 168.44 99.5816 168.272 99.9416 168.149C100.306 168.021 100.712 167.957 101.158 167.957C101.696 167.957 102.17 168.049 102.58 168.231C102.995 168.413 103.319 168.689 103.551 169.058C103.788 169.423 103.906 169.881 103.906 170.432V173.877C103.906 174.123 103.927 174.385 103.968 174.663C104.014 174.941 104.08 175.181 104.166 175.381V175.491H102.847C102.783 175.345 102.733 175.151 102.697 174.91C102.66 174.663 102.642 174.436 102.642 174.226ZM102.861 171.006L102.874 171.895H101.596C101.236 171.895 100.915 171.925 100.632 171.984C100.35 172.038 100.113 172.123 99.9211 172.237C99.7297 172.351 99.5839 172.494 99.4836 172.667C99.3834 172.836 99.3332 173.034 99.3332 173.262C99.3332 173.495 99.3857 173.706 99.4905 173.898C99.5953 174.089 99.7525 174.242 99.9622 174.356C100.176 174.465 100.438 174.52 100.748 174.52C101.136 174.52 101.477 174.438 101.774 174.274C102.07 174.11 102.305 173.909 102.478 173.672C102.656 173.435 102.751 173.205 102.765 172.982L103.305 173.59C103.273 173.782 103.186 173.994 103.045 174.226C102.904 174.458 102.715 174.682 102.478 174.896C102.245 175.106 101.967 175.281 101.644 175.422C101.325 175.559 100.965 175.627 100.564 175.627C100.062 175.627 99.6226 175.529 99.2444 175.333C98.8707 175.137 98.579 174.875 98.3694 174.547C98.1643 174.215 98.0618 173.843 98.0618 173.433C98.0618 173.036 98.1392 172.688 98.2942 172.387C98.4491 172.082 98.6724 171.829 98.9641 171.628C99.2558 171.423 99.6067 171.268 100.017 171.163C100.427 171.059 100.885 171.006 101.391 171.006H102.861ZM107.876 174.588C108.176 174.588 108.454 174.527 108.71 174.404C108.965 174.281 109.175 174.112 109.339 173.898C109.503 173.679 109.596 173.431 109.619 173.153H110.822C110.799 173.59 110.651 173.998 110.378 174.376C110.109 174.75 109.756 175.053 109.318 175.286C108.881 175.513 108.4 175.627 107.876 175.627C107.32 175.627 106.834 175.529 106.42 175.333C106.009 175.137 105.668 174.869 105.394 174.527C105.125 174.185 104.923 173.793 104.786 173.351C104.654 172.904 104.588 172.433 104.588 171.936V171.649C104.588 171.152 104.654 170.683 104.786 170.241C104.923 169.794 105.125 169.4 105.394 169.058C105.668 168.716 106.009 168.447 106.42 168.251C106.834 168.055 107.32 167.957 107.876 167.957C108.454 167.957 108.96 168.076 109.393 168.313C109.826 168.545 110.166 168.864 110.412 169.27C110.662 169.671 110.799 170.127 110.822 170.637H109.619C109.596 170.332 109.509 170.056 109.359 169.81C109.213 169.564 109.013 169.368 108.758 169.222C108.507 169.072 108.213 168.996 107.876 168.996C107.488 168.996 107.162 169.074 106.898 169.229C106.638 169.379 106.431 169.584 106.276 169.844C106.126 170.099 106.016 170.384 105.948 170.699C105.884 171.009 105.852 171.325 105.852 171.649V171.936C105.852 172.259 105.884 172.578 105.948 172.893C106.012 173.207 106.119 173.492 106.269 173.747C106.424 174.003 106.632 174.208 106.891 174.363C107.156 174.513 107.484 174.588 107.876 174.588ZM114.361 168.094V169.065H110.362V168.094H114.361ZM111.715 166.296H112.98V173.659C112.98 173.909 113.018 174.098 113.096 174.226C113.173 174.354 113.274 174.438 113.397 174.479C113.52 174.52 113.652 174.54 113.793 174.54C113.898 174.54 114.007 174.531 114.121 174.513C114.24 174.49 114.329 174.472 114.388 174.458L114.395 175.491C114.294 175.523 114.162 175.552 113.998 175.579C113.839 175.611 113.645 175.627 113.417 175.627C113.107 175.627 112.822 175.566 112.563 175.443C112.303 175.32 112.096 175.115 111.941 174.828C111.79 174.536 111.715 174.144 111.715 173.652V166.296ZM116.238 168.094V175.491H114.966V168.094H116.238ZM114.871 166.132C114.871 165.927 114.932 165.754 115.055 165.613C115.183 165.471 115.37 165.401 115.616 165.401C115.857 165.401 116.042 165.471 116.17 165.613C116.302 165.754 116.368 165.927 116.368 166.132C116.368 166.328 116.302 166.497 116.17 166.638C116.042 166.775 115.857 166.843 115.616 166.843C115.37 166.843 115.183 166.775 115.055 166.638C114.932 166.497 114.871 166.328 114.871 166.132ZM119.537 174.349L121.561 168.094H122.853L120.194 175.491H119.346L119.537 174.349ZM117.849 168.094L119.934 174.383L120.077 175.491H119.23L116.55 168.094H117.849ZM126.063 175.627C125.548 175.627 125.081 175.541 124.662 175.368C124.247 175.19 123.889 174.941 123.589 174.622C123.292 174.303 123.064 173.925 122.905 173.488C122.745 173.05 122.666 172.572 122.666 172.052V171.765C122.666 171.163 122.755 170.628 122.932 170.159C123.11 169.685 123.352 169.284 123.657 168.955C123.962 168.627 124.309 168.379 124.696 168.21C125.083 168.042 125.484 167.957 125.899 167.957C126.428 167.957 126.883 168.049 127.266 168.231C127.654 168.413 127.97 168.668 128.216 168.996C128.463 169.32 128.645 169.703 128.763 170.145C128.882 170.582 128.941 171.061 128.941 171.58V172.148H123.418V171.116H127.676V171.02C127.658 170.692 127.59 170.373 127.471 170.063C127.357 169.753 127.175 169.498 126.924 169.297C126.674 169.097 126.332 168.996 125.899 168.996C125.612 168.996 125.348 169.058 125.106 169.181C124.865 169.3 124.657 169.477 124.484 169.714C124.311 169.951 124.176 170.241 124.081 170.582C123.985 170.924 123.937 171.318 123.937 171.765V172.052C123.937 172.403 123.985 172.733 124.081 173.043C124.181 173.349 124.325 173.618 124.511 173.85C124.703 174.082 124.933 174.265 125.202 174.397C125.475 174.529 125.785 174.595 126.131 174.595C126.578 174.595 126.956 174.504 127.266 174.322C127.576 174.139 127.847 173.896 128.08 173.59L128.845 174.199C128.686 174.44 128.483 174.67 128.237 174.889C127.991 175.108 127.688 175.286 127.328 175.422C126.972 175.559 126.551 175.627 126.063 175.627ZM133.195 169.516V178.334H131.923V168.094H133.086L133.195 169.516ZM138.178 171.731V171.874C138.178 172.412 138.115 172.911 137.987 173.371C137.859 173.827 137.672 174.224 137.426 174.561C137.185 174.898 136.886 175.16 136.531 175.347C136.175 175.534 135.768 175.627 135.307 175.627C134.838 175.627 134.423 175.55 134.063 175.395C133.703 175.24 133.398 175.014 133.147 174.718C132.896 174.422 132.696 174.066 132.546 173.652C132.4 173.237 132.299 172.77 132.245 172.25V171.485C132.299 170.938 132.402 170.448 132.552 170.015C132.703 169.582 132.901 169.213 133.147 168.908C133.398 168.598 133.701 168.363 134.056 168.203C134.412 168.039 134.822 167.957 135.287 167.957C135.752 167.957 136.164 168.049 136.524 168.231C136.884 168.409 137.187 168.664 137.433 168.996C137.679 169.329 137.864 169.728 137.987 170.193C138.115 170.653 138.178 171.166 138.178 171.731ZM136.907 171.874V171.731C136.907 171.362 136.868 171.015 136.791 170.692C136.713 170.364 136.592 170.077 136.428 169.83C136.269 169.58 136.064 169.384 135.813 169.243C135.562 169.097 135.264 169.024 134.918 169.024C134.599 169.024 134.321 169.078 134.084 169.188C133.851 169.297 133.653 169.445 133.489 169.632C133.325 169.814 133.19 170.024 133.086 170.261C132.985 170.494 132.91 170.735 132.86 170.986V172.756C132.951 173.075 133.079 173.376 133.243 173.659C133.407 173.937 133.626 174.162 133.899 174.335C134.172 174.504 134.517 174.588 134.931 174.588C135.273 174.588 135.567 174.518 135.813 174.376C136.064 174.231 136.269 174.032 136.428 173.782C136.592 173.531 136.713 173.244 136.791 172.92C136.868 172.592 136.907 172.244 136.907 171.874ZM140.076 169.256V175.491H138.812V168.094H140.042L140.076 169.256ZM142.387 168.053L142.38 169.229C142.275 169.206 142.175 169.192 142.079 169.188C141.988 169.179 141.883 169.174 141.765 169.174C141.473 169.174 141.216 169.22 140.992 169.311C140.769 169.402 140.58 169.53 140.425 169.694C140.27 169.858 140.147 170.054 140.056 170.282C139.969 170.505 139.912 170.751 139.885 171.02L139.529 171.225C139.529 170.778 139.573 170.359 139.659 169.967C139.75 169.575 139.889 169.229 140.076 168.928C140.263 168.623 140.5 168.386 140.787 168.217C141.079 168.044 141.425 167.957 141.826 167.957C141.917 167.957 142.022 167.969 142.141 167.992C142.259 168.01 142.341 168.03 142.387 168.053ZM142.104 171.874V171.717C142.104 171.184 142.182 170.689 142.336 170.234C142.491 169.773 142.715 169.375 143.006 169.037C143.298 168.696 143.651 168.431 144.066 168.245C144.481 168.053 144.946 167.957 145.461 167.957C145.98 167.957 146.447 168.053 146.862 168.245C147.281 168.431 147.637 168.696 147.928 169.037C148.225 169.375 148.45 169.773 148.605 170.234C148.76 170.689 148.837 171.184 148.837 171.717V171.874C148.837 172.408 148.76 172.902 148.605 173.358C148.45 173.814 148.225 174.212 147.928 174.554C147.637 174.891 147.283 175.156 146.869 175.347C146.459 175.534 145.994 175.627 145.474 175.627C144.955 175.627 144.488 175.534 144.073 175.347C143.658 175.156 143.303 174.891 143.006 174.554C142.715 174.212 142.491 173.814 142.336 173.358C142.182 172.902 142.104 172.408 142.104 171.874ZM143.369 171.717V171.874C143.369 172.244 143.412 172.592 143.499 172.92C143.585 173.244 143.715 173.531 143.888 173.782C144.066 174.032 144.287 174.231 144.551 174.376C144.816 174.518 145.123 174.588 145.474 174.588C145.821 174.588 146.124 174.518 146.383 174.376C146.648 174.231 146.866 174.032 147.04 173.782C147.213 173.531 147.343 173.244 147.429 172.92C147.52 172.592 147.566 172.244 147.566 171.874V171.717C147.566 171.353 147.52 171.009 147.429 170.685C147.343 170.357 147.211 170.067 147.033 169.817C146.86 169.562 146.641 169.361 146.377 169.215C146.117 169.069 145.811 168.996 145.461 168.996C145.114 168.996 144.809 169.069 144.544 169.215C144.285 169.361 144.066 169.562 143.888 169.817C143.715 170.067 143.585 170.357 143.499 170.685C143.412 171.009 143.369 171.353 143.369 171.717ZM151.132 175.491H149.867V167.452C149.867 166.891 149.977 166.417 150.195 166.03C150.414 165.642 150.726 165.348 151.132 165.148C151.537 164.947 152.018 164.847 152.574 164.847C152.902 164.847 153.224 164.888 153.538 164.97C153.853 165.048 154.176 165.146 154.509 165.264L154.297 166.33C154.087 166.248 153.843 166.171 153.565 166.098C153.292 166.021 152.991 165.982 152.663 165.982C152.121 165.982 151.729 166.105 151.487 166.351C151.25 166.592 151.132 166.959 151.132 167.452V175.491ZM152.643 168.094V169.065H148.698V168.094H152.643ZM155.131 168.094V175.491H153.866V168.094H155.131ZM157.603 164.991V175.491H156.332V164.991H157.603ZM161.723 175.627C161.208 175.627 160.741 175.541 160.321 175.368C159.907 175.19 159.549 174.941 159.248 174.622C158.952 174.303 158.724 173.925 158.564 173.488C158.405 173.05 158.325 172.572 158.325 172.052V171.765C158.325 171.163 158.414 170.628 158.592 170.159C158.77 169.685 159.011 169.284 159.316 168.955C159.622 168.627 159.968 168.379 160.355 168.21C160.743 168.042 161.144 167.957 161.559 167.957C162.087 167.957 162.543 168.049 162.926 168.231C163.313 168.413 163.63 168.668 163.876 168.996C164.122 169.32 164.304 169.703 164.423 170.145C164.541 170.582 164.601 171.061 164.601 171.58V172.148H159.077V171.116H163.336V171.02C163.318 170.692 163.249 170.373 163.131 170.063C163.017 169.753 162.835 169.498 162.584 169.297C162.333 169.097 161.992 168.996 161.559 168.996C161.271 168.996 161.007 169.058 160.766 169.181C160.524 169.3 160.317 169.477 160.144 169.714C159.97 169.951 159.836 170.241 159.74 170.582C159.645 170.924 159.597 171.318 159.597 171.765V172.052C159.597 172.403 159.645 172.733 159.74 173.043C159.84 173.349 159.984 173.618 160.171 173.85C160.362 174.082 160.592 174.265 160.861 174.397C161.135 174.529 161.445 174.595 161.791 174.595C162.238 174.595 162.616 174.504 162.926 174.322C163.236 174.139 163.507 173.896 163.739 173.59L164.505 174.199C164.345 174.44 164.143 174.67 163.896 174.889C163.65 175.108 163.347 175.286 162.987 175.422C162.632 175.559 162.21 175.627 161.723 175.627ZM169.404 173.529C169.404 173.346 169.363 173.178 169.281 173.023C169.203 172.863 169.041 172.72 168.795 172.592C168.554 172.46 168.189 172.346 167.702 172.25C167.291 172.164 166.92 172.061 166.587 171.943C166.259 171.824 165.979 171.681 165.747 171.512C165.519 171.343 165.343 171.145 165.22 170.917C165.097 170.689 165.036 170.423 165.036 170.118C165.036 169.826 165.099 169.55 165.227 169.29C165.359 169.031 165.544 168.8 165.781 168.6C166.022 168.399 166.312 168.242 166.649 168.128C166.986 168.014 167.362 167.957 167.777 167.957C168.369 167.957 168.875 168.062 169.294 168.272C169.714 168.481 170.035 168.762 170.258 169.113C170.482 169.459 170.593 169.844 170.593 170.268H169.329C169.329 170.063 169.267 169.865 169.144 169.673C169.026 169.477 168.85 169.315 168.618 169.188C168.39 169.06 168.11 168.996 167.777 168.996C167.426 168.996 167.141 169.051 166.922 169.161C166.708 169.265 166.551 169.4 166.451 169.564C166.355 169.728 166.307 169.901 166.307 170.083C166.307 170.22 166.33 170.343 166.375 170.453C166.426 170.557 166.512 170.655 166.635 170.746C166.758 170.833 166.931 170.915 167.155 170.993C167.378 171.07 167.663 171.148 168.009 171.225C168.615 171.362 169.114 171.526 169.506 171.717C169.898 171.909 170.19 172.143 170.381 172.421C170.573 172.699 170.668 173.036 170.668 173.433C170.668 173.757 170.6 174.053 170.463 174.322C170.331 174.591 170.138 174.823 169.882 175.019C169.632 175.21 169.331 175.361 168.98 175.47C168.634 175.575 168.244 175.627 167.811 175.627C167.159 175.627 166.608 175.511 166.157 175.279C165.706 175.046 165.364 174.745 165.131 174.376C164.899 174.007 164.783 173.618 164.783 173.207H166.054C166.072 173.554 166.173 173.829 166.355 174.035C166.537 174.235 166.761 174.379 167.025 174.465C167.289 174.547 167.551 174.588 167.811 174.588C168.157 174.588 168.447 174.543 168.679 174.452C168.916 174.36 169.096 174.235 169.219 174.076C169.342 173.916 169.404 173.734 169.404 173.529Z" fill="black" fill-opacity="0.5"/>
<defs>
<linearGradient id="paint0_linear_1_1289" x1="116.734" y1="55.1503" x2="121.53" y2="68.4398" gradientUnits="userSpaceOnUse">
<stop stop-color="#B0F9FF"/>
<stop offset="0.5" stop-color="#B6F3FE"/>
<stop offset="1" stop-color="#BCEEFD"/>
</linearGradient>
</defs>
</svg>
