<svg width="28" height="28" viewBox="0 0 28 28" fill="none" xmlns="http://www.w3.org/2000/svg">
<path d="M14 4.08334C8.52316 4.08334 4.08331 8.52318 4.08331 14C4.08331 19.4768 8.52316 23.9167 14 23.9167C19.1538 23.9167 23.3888 19.9853 23.8709 14.9575C23.8934 14.7236 23.7731 14.499 23.5661 14.3878C23.3589 14.2767 23.1052 14.3008 22.9228 14.4489C21.9198 15.2628 20.6426 15.75 19.25 15.75C16.0283 15.75 13.4166 13.1383 13.4166 9.91667C13.4166 8.00322 14.3374 6.30494 15.7623 5.24029C15.9508 5.09952 16.0362 4.85936 15.979 4.63122C15.9218 4.40307 15.7333 4.23157 15.5008 4.19625C15.011 4.12186 14.5098 4.08334 14 4.08334Z" fill="black"/>
</svg>
