<svg width="17" height="18" viewBox="0 0 17 18" fill="none" xmlns="http://www.w3.org/2000/svg">
<path d="M12.75 1.91669L15.5833 4.75002M1.41663 16.0834L2.32074 12.7683C2.37973 12.552 2.40922 12.4438 2.4545 12.343C2.4947 12.2534 2.54409 12.1683 2.60189 12.089C2.66699 11.9997 2.74625 11.9204 2.90477 11.7619L10.2243 4.44238C10.3645 4.30212 10.4346 4.232 10.5155 4.20572C10.5866 4.18261 10.6633 4.18261 10.7344 4.20572C10.8153 4.232 10.8854 4.30212 11.0257 4.44238L13.0576 6.47433C13.1979 6.61458 13.268 6.68471 13.2943 6.76558C13.3174 6.83671 13.3174 6.91333 13.2943 6.98446C13.268 7.06533 13.1979 7.13546 13.0576 7.27571L5.7381 14.5952C5.57958 14.7537 5.50032 14.833 5.41098 14.8981C5.33165 14.9559 5.24653 15.0053 5.15699 15.0455C5.05615 15.0908 4.94801 15.1202 4.73172 15.1792L1.41663 16.0834Z" stroke="black" stroke-width="1.5" stroke-linecap="round" stroke-linejoin="round"/>
</svg>
